<svg width="193" height="90" viewBox="0 0 193 90" fill="none" xmlns="http://www.w3.org/2000/svg">
<g clip-path="url(#clip0_789_138)">
<path d="M73.3242 73.8396V76.7687H71.123V85.5752H66.7182V76.7687H64.5146V85.5752H60.1121V76.7687H57.9109V85.5752H47.6257L46.1526 82.651V76.7687H43.1991V85.5752H38.7967V67.9621H50.555V70.8864H43.1991V73.8396H50.555V82.651H53.4843V73.8396H60.1121V70.8864H64.5146V73.8396H66.7182V70.8864H71.123V73.8396H73.3242ZM37.3405 76.7445H32.9381V79.6977H37.3405V76.7445ZM91.691 67.9621H87.2886V70.8864H91.691V67.9621ZM91.691 85.5752V73.8396L87.2862 73.8154V85.5752H91.691ZM104.906 76.7687V85.5752H100.501V76.7687H98.2971V85.5752H93.8922V73.8396H110.06L111.509 76.7687V85.5752H107.107V76.7687H104.906ZM31.4601 67.9621H27.0553V85.5728H31.4601V67.9621ZM77.7291 76.7687H80.6801V82.651H77.7291V76.7687ZM85.085 85.5752V73.8396H74.7998L73.3242 76.7687V82.651L74.7998 85.5752H85.085ZM20.4517 85.5752H24.8541V67.9621H16.7725L10.8922 85.5752H15.297L17.4982 79.7219H20.4517V85.5752ZM20.4517 70.8864V76.7687H18.2263L20.4517 70.8864Z" fill="#2056AE"/>
<path d="M123.251 82.6544H126.228V76.7769H123.251V82.6544ZM130.602 73.8382V87.0613L129.124 90H118.841V87.0613H126.228V85.5931H120.324L118.841 82.6544V76.7769L120.317 73.8382H130.602Z" fill="#2056AE"/>
<path d="M138.708 81.1897V76.7829H136.502V85.5918H132.095V73.8393H141.652L143.125 76.7732V81.1897H138.708Z" fill="#2056AE"/>
<path d="M146.099 85.5928H154.907L156.38 82.654V76.7766L154.907 73.8403H146.099L144.624 76.7766V82.654L146.099 85.5928ZM149.033 76.7766H151.972V82.654H149.033V76.7766Z" fill="#2056AE"/>
<path d="M159.316 85.5928L157.843 82.654V73.8403H162.25V82.654H164.454V73.8403H168.861V85.5928H159.316Z" fill="#2056AE"/>
<path d="M177.737 76.7769H174.759V82.6544H177.737V76.7769ZM180.632 85.5931H174.757V90H170.347V73.8382H180.632L182.11 76.7769V82.6544L180.632 85.5931Z" fill="#2056AE"/>
<path d="M96.508 17.5963L100.893 13.2088L96.508 8.82366L92.1225 13.2088L96.508 17.5963ZM92.1007 22.0322L87.708 17.6254L83.279 22.0129L78.8669 17.606L96.508 0.000205994L114.137 17.6254L109.742 22.0129L105.359 17.6254L100.927 22.0613L105.31 26.444L100.927 30.8291L96.4233 26.444L92.1007 30.8291L87.6814 26.4585L92.1007 22.0322Z" fill="#00ADEF"/>
<path d="M96.2509 57.2383H100.658V39.6083H96.2509V57.2383Z" fill="#2056AE"/>
<path d="M77.1487 41.1033H72.7415V44.042H77.1487V41.1033Z" fill="#2056AE"/>
<path d="M76.4134 54.3243H73.4744V48.4468H76.4134V54.3243ZM16.1656 58.7312H13.2266V52.8537H16.1656V58.7312ZM89.64 54.3001H80.8206V48.4468L79.3523 45.5105H69.0671V54.3243H60.2502V48.4468L58.7795 45.5105H48.4919V39.6161H44.0846V52.8561H48.4919V48.4468H55.8405V54.3243H35.2677V48.4251H30.8605V54.3243H20.5728V52.8561L19.1046 49.9174H8.81693V54.3243H0V57.263H8.81693V58.7312L10.2852 61.6699H20.5728V57.263L92.579 57.2388L94.0472 54.3001V39.6113H89.64V54.3001Z" fill="#2056AE"/>
<path d="M33.7994 61.6699H38.2067V58.7312H33.7994V61.6699Z" fill="#2056AE"/>
<path d="M27.9215 61.6699H32.3288V58.7312H27.9215V61.6699Z" fill="#2056AE"/>
<path d="M185.649 58.7312H188.588V52.8537H185.649V58.7312ZM181.244 57.263H178.305V54.3243H181.244V49.9174H191.532L193 52.8561V61.6699H182.715L181.244 58.7312V57.263Z" fill="#2056AE"/>
<path d="M155.069 58.7312H158.011V52.8537H155.069V58.7312ZM150.662 57.263H143.966V54.3243H150.662V49.9174H160.947L162.418 52.8561V61.6699H152.13L150.662 58.7312V57.263Z" fill="#2056AE"/>
<path d="M139.803 54.3244H142.742V51.3857H139.803V54.3244ZM145.684 63.1406H135.396V60.2019H142.742V57.2632H135.396V51.3857L136.864 48.447H147.152V60.2019L145.684 63.1406Z" fill="#2056AE"/>
<path d="M112.097 49.9171H115.036V46.9783H112.097V49.9171ZM115.036 52.8558H107.69V46.9783L109.158 44.042H119.446V54.324H123.12V57.2627H115.036V52.8558Z" fill="#2056AE"/>
<path d="M166.849 61.6699H171.256V58.7312H166.849V61.6699Z" fill="#2056AE"/>
<path d="M177.736 54.324V48.4465L176.266 45.5078H165.925V48.4465H173.327V54.324H159.067V57.2627H182.582V54.324H177.736Z" fill="#2056AE"/>
<path d="M133.242 45.5092H124.422L122.954 48.4479V54.3254H118.138V57.2617H133.242V54.3254H127.361V48.4479H133.242V45.5092Z" fill="#2056AE"/>
<path d="M109.158 42.5713H113.565V39.6277H109.158V42.5713Z" fill="#2056AE"/>
<path d="M115.036 42.5713H119.446V39.6277H115.036V42.5713Z" fill="#2056AE"/>
</g>
<defs>
<clipPath id="clip0_789_138">
<rect width="193" height="90" fill="white"/>
</clipPath>
</defs>
</svg>
