<svg width="58" height="60" viewBox="0 0 58 60" fill="none" xmlns="http://www.w3.org/2000/svg">
<path fill-rule="evenodd" clip-rule="evenodd" d="M29.065 0C21.5367 0 14.6783 2.48667 10.62 4.51833C10.2533 4.70167 9.91167 4.88167 9.59333 5.055C8.96333 5.39833 8.42667 5.71833 8 6L12.6167 12.7967L14.79 13.6617C23.2833 17.9467 34.6733 17.9467 43.1683 13.6617L45.635 12.3817L50 6C49.0959 5.41009 48.1557 4.87738 47.185 4.405C43.1467 2.395 36.4517 0 29.0667 0H29.065ZM18.3283 7.69333C16.6935 7.38743 15.0789 6.98224 13.4933 6.48C17.295 4.79167 22.96 3 29.065 3C33.2933 3 37.2917 3.86 40.5983 4.95C36.7233 5.495 32.5883 6.42 28.6483 7.55833C25.5483 8.455 21.925 8.35833 18.3283 7.69333ZM44.9283 16.1333L44.5183 16.34C35.175 21.0533 22.7817 21.0533 13.4383 16.34L13.05 16.1433C-0.986666 31.545 -11.7033 59.995 29.065 59.995C69.8333 59.995 58.855 31.0133 44.9283 16.1333ZM27.3333 30C26.4493 30 25.6014 30.3512 24.9763 30.9763C24.3512 31.6014 24 32.4493 24 33.3333C24 34.2174 24.3512 35.0652 24.9763 35.6904C25.6014 36.3155 26.4493 36.6667 27.3333 36.6667V30ZM30.6667 26.6667V25H27.3333V26.6667C25.5652 26.6667 23.8695 27.369 22.6193 28.6193C21.369 29.8695 20.6667 31.5652 20.6667 33.3333C20.6667 35.1014 21.369 36.7971 22.6193 38.0474C23.8695 39.2976 25.5652 40 27.3333 40V46.6667C25.8833 46.6667 24.6483 45.7417 24.1883 44.445C24.1201 44.2329 24.01 44.0366 23.8646 43.8677C23.7191 43.6989 23.5413 43.5609 23.3416 43.462C23.1419 43.363 22.9244 43.3052 22.702 43.2918C22.4795 43.2784 22.2566 43.3097 22.0465 43.384C21.8364 43.4582 21.6433 43.5738 21.4787 43.724C21.314 43.8742 21.1811 44.0558 21.0879 44.2582C20.9947 44.4606 20.943 44.6797 20.9359 44.9024C20.9288 45.1252 20.9665 45.3471 21.0467 45.555C21.5064 46.855 22.3578 47.9804 23.4837 48.7765C24.6095 49.5725 25.9545 50 27.3333 50V51.6667H30.6667V50C32.4348 50 34.1305 49.2976 35.3807 48.0474C36.631 46.7971 37.3333 45.1014 37.3333 43.3333C37.3333 41.5652 36.631 39.8695 35.3807 38.6193C34.1305 37.369 32.4348 36.6667 30.6667 36.6667V30C32.1167 30 33.3517 30.925 33.8117 32.2217C33.8799 32.4338 33.99 32.6301 34.1355 32.799C34.2809 32.9678 34.4587 33.1058 34.6584 33.2047C34.8581 33.3036 35.0756 33.3615 35.298 33.3749C35.5205 33.3883 35.7434 33.3569 35.9535 33.2827C36.1636 33.2085 36.3567 33.0928 36.5213 32.9427C36.686 32.7925 36.8189 32.6108 36.9121 32.4084C37.0053 32.206 37.057 31.987 37.0641 31.7642C37.0712 31.5415 37.0335 31.3196 36.9533 31.1117C36.4936 29.8117 35.6422 28.6862 34.5163 27.8902C33.3905 27.0941 32.0455 26.6667 30.6667 26.6667ZM30.6667 40V46.6667C31.5507 46.6667 32.3986 46.3155 33.0237 45.6904C33.6488 45.0652 34 44.2174 34 43.3333C34 42.4493 33.6488 41.6014 33.0237 40.9763C32.3986 40.3512 31.5507 40 30.6667 40Z" fill="#286049"/>
</svg>
