<svg width="68" height="57" viewBox="0 0 68 57" fill="none" xmlns="http://www.w3.org/2000/svg">
<path fill-rule="evenodd" clip-rule="evenodd" d="M23.8733 51.5633C14.0633 44.0467 0.666687 31.63 0.666687 19.89C0.666687 0.276672 19 -7.04666 34 8.1C49 -7.04666 67.3333 0.27667 67.3333 19.8867C67.3333 31.63 53.9333 44.0467 44.1267 51.5633C39.6867 54.9633 37.4667 56.6667 34 56.6667C30.5333 56.6667 28.3133 54.9667 23.8733 51.5633ZM49 10.8333C49.663 10.8333 50.2989 11.0967 50.7678 11.5656C51.2366 12.0344 51.5 12.6703 51.5 13.3333V17.5H55.6667C56.3297 17.5 56.9656 17.7634 57.4344 18.2322C57.9033 18.7011 58.1667 19.337 58.1667 20C58.1667 20.663 57.9033 21.2989 57.4344 21.7678C56.9656 22.2366 56.3297 22.5 55.6667 22.5H51.5V26.6667C51.5 27.3297 51.2366 27.9656 50.7678 28.4344C50.2989 28.9033 49.663 29.1667 49 29.1667C48.337 29.1667 47.7011 28.9033 47.2322 28.4344C46.7634 27.9656 46.5 27.3297 46.5 26.6667V22.5H42.3333C41.6703 22.5 41.0344 22.2366 40.5656 21.7678C40.0967 21.2989 39.8333 20.663 39.8333 20C39.8333 19.337 40.0967 18.7011 40.5656 18.2322C41.0344 17.7634 41.6703 17.5 42.3333 17.5H46.5V13.3333C46.5 12.6703 46.7634 12.0344 47.2322 11.5656C47.7011 11.0967 48.337 10.8333 49 10.8333Z" fill="#286049"/>
</svg>
