<svg width="26" height="26" viewBox="0 0 26 26" fill="none" xmlns="http://www.w3.org/2000/svg">
<path d="M13 9.90438C12.3878 9.9046 11.7894 10.0864 11.2805 10.4266C10.7716 10.7669 10.375 11.2505 10.1408 11.8162C9.90672 12.3818 9.84558 13.0042 9.96516 13.6046C10.0847 14.2051 10.3797 14.7565 10.8126 15.1893C11.2456 15.6222 11.7972 15.9169 12.3977 16.0362C12.9981 16.1556 13.6205 16.0942 14.1861 15.8599C14.7517 15.6255 15.2351 15.2288 15.5752 14.7197C15.9153 14.2107 16.0968 13.6122 16.0968 13C16.0962 12.179 15.7697 11.3918 15.189 10.8113C14.6083 10.2309 13.821 9.90468 13 9.90438ZM20.2376 7.52491C20.08 7.12553 19.8421 6.7628 19.5385 6.4592C19.2349 6.15561 18.8721 5.91764 18.4728 5.76004C17.254 5.27893 14.3522 5.38687 13 5.38687C11.6478 5.38687 8.74888 5.27487 7.52665 5.76004C7.12727 5.91764 6.76454 6.15561 6.46094 6.4592C6.15735 6.7628 5.91938 7.12553 5.76179 7.52491C5.28125 8.74366 5.38862 11.6483 5.38862 12.9994C5.38862 14.3505 5.28125 17.2517 5.76411 18.4745C5.9217 18.8739 6.15967 19.2366 6.46327 19.5402C6.76686 19.8438 7.1296 20.0818 7.52897 20.2394C8.74772 20.7205 11.6495 20.6125 13.0023 20.6125C14.3551 20.6125 17.2529 20.7246 18.4751 20.2394C18.8745 20.0818 19.2372 19.8438 19.5408 19.5402C19.8444 19.2366 20.0824 18.8739 20.24 18.4745C20.7246 17.2558 20.6131 14.3511 20.6131 13C20.6131 11.6489 20.7246 8.7483 20.24 7.52549L20.2376 7.52491ZM13 17.7589C12.0588 17.7589 11.1387 17.4798 10.3561 16.9569C9.57348 16.434 8.96352 15.6907 8.60332 14.8212C8.24313 13.9516 8.14889 12.9947 8.33251 12.0716C8.51614 11.1484 8.96938 10.3005 9.63493 9.63493C10.3005 8.96938 11.1484 8.51614 12.0716 8.33251C12.9947 8.14889 13.9516 8.24313 14.8212 8.60332C15.6907 8.96352 16.434 9.57348 16.9569 10.3561C17.4798 11.1387 17.7589 12.0588 17.7589 13C17.7597 13.6252 17.6371 14.2443 17.3982 14.8221C17.1593 15.3998 16.8088 15.9247 16.3668 16.3668C15.9247 16.8088 15.3998 17.1593 14.8221 17.3982C14.2443 17.6371 13.6252 17.7597 13 17.7589ZM17.9551 9.15223C17.7354 9.15235 17.5205 9.0873 17.3378 8.96531C17.1551 8.84332 17.0126 8.66988 16.9284 8.46692C16.8443 8.26395 16.8222 8.04059 16.865 7.82508C16.9078 7.60956 17.0135 7.41158 17.1688 7.25618C17.3242 7.10077 17.5221 6.99492 17.7376 6.95201C17.9531 6.9091 18.1765 6.93107 18.3795 7.01512C18.5825 7.09918 18.756 7.24156 18.8781 7.42424C19.0001 7.60692 19.0653 7.82171 19.0653 8.04143C19.0659 8.18734 19.0377 8.33193 18.9823 8.46692C18.9269 8.6019 18.8454 8.72462 18.7425 8.82804C18.6396 8.93146 18.5172 9.01354 18.3825 9.06957C18.2478 9.1256 18.1033 9.15448 17.9574 9.15455L17.9551 9.15223ZM23.2143 0H2.78571C2.0469 0 1.33834 0.293494 0.815917 0.815917C0.293494 1.33834 0 2.0469 0 2.78571L0 23.2143C0 23.9531 0.293494 24.6617 0.815917 25.1841C1.33834 25.7065 2.0469 26 2.78571 26H23.2143C23.9531 26 24.6617 25.7065 25.1841 25.1841C25.7065 24.6617 26 23.9531 26 23.2143V2.78571C26 2.0469 25.7065 1.33834 25.1841 0.815917C24.6617 0.293494 23.9531 0 23.2143 0ZM22.2207 16.8304C22.1458 18.3178 21.8063 19.6358 20.7205 20.7188C19.6346 21.8017 18.3178 22.1482 16.8321 22.219C15.2994 22.3054 10.7041 22.3054 9.17138 22.219C7.68393 22.1441 6.37058 21.804 5.28299 20.7188C4.1954 19.6335 3.85357 18.3149 3.78277 16.8304C3.69629 15.2971 3.69629 10.7012 3.78277 9.16964C3.85763 7.68219 4.19308 6.3642 5.28299 5.28125C6.3729 4.1983 7.68973 3.85589 9.17138 3.78509C10.7041 3.69862 15.2994 3.69862 16.8321 3.78509C18.3196 3.85996 19.637 4.20004 20.7205 5.28531C21.804 6.37058 22.1499 7.68915 22.2207 9.17661C22.3072 10.7041 22.3072 15.2959 22.2207 16.8304Z" fill="#286049"/>
</svg>
