<svg width="120" height="50" viewBox="0 0 120 50" fill="none" xmlns="http://www.w3.org/2000/svg">
<path d="M15.5367 33.8235C16.4188 32.646 17.1165 31.3416 17.6061 29.9549L16.4397 27.9268H10.0624L9.61089 28.753C9.61089 28.753 10.9278 32.0582 11.2664 33.5794C11.9812 33.2413 13.3921 32.8845 15.5367 33.8235Z" fill="black"/>
<path d="M11.2664 34.0867C10.8337 35.0256 7.86139 41.6548 8.25645 45.6173C8.25645 45.6173 8.23764 46.0117 8.74557 46.3308C9.2535 46.7065 12.6961 49.3357 13.11 49.7676C13.5803 50.2183 14.0506 49.9179 14.2575 49.6739C14.4456 49.4482 18.2081 45.0162 19.0546 44.5655C19.0546 44.5655 18.1516 38.9693 15.3862 34.2369C13.1288 33.2416 11.8119 33.7487 11.2476 34.0867H11.2664Z" fill="black"/>
<path d="M24.8111 24.5273L24.9992 26.0297C24.9992 26.0297 25.1121 28.9969 24.2091 31.025C24.2091 31.025 21.3121 33.8044 20.9546 34.4805C20.5972 35.1379 20.4279 35.8327 19.4873 35.3066C18.5467 34.781 17.0417 30.4617 16.0447 29.2973C15.8506 29.0077 15.6369 28.7316 15.405 28.4711C15.2734 28.3396 15.4615 28.2832 15.9694 28.2832L23.8705 25.0907L24.8111 24.5273Z" fill="black"/>
<path d="M3.36531 26.9695C3.36531 26.9695 3.06431 27.9085 2.98906 28.4719C2.895 29.1292 3.55343 30.4625 5.00195 32.4719C5.00195 32.4719 5.71683 33.6738 5.75443 34.6128C5.75443 34.6128 6.26237 35.5519 6.97725 34.6128C7.6921 33.6926 9.94956 29.9367 10.3258 29.4109C10.5891 29.0353 11.2664 28.5846 11.2664 28.4719C11.2664 28.378 11.0218 28.378 10.5139 28.4719L3.74156 25.8428L3.36531 26.9695Z" fill="black"/>
<path fill-rule="evenodd" clip-rule="evenodd" d="M26.3161 14.5745L26.2785 15.2694C26.2785 15.2694 25.827 16.8468 25.827 17.598C25.827 18.3492 26.2785 21.6544 26.2785 21.6544L25.827 22.4056C25.1874 24.2272 24.0398 25.1098 24.0398 25.1098C19.619 28.1145 16.2892 28.3023 16.2892 28.3023C15.7813 28.6028 14.4645 28.8657 14.0318 28.6779C13.5991 28.4901 11.0595 28.3023 10.6456 28.4338C10.2129 28.5465 9.00894 28.4338 9.00894 28.4338C2.95143 26.2553 2.21776 23.3258 2.21776 23.3258C1.78508 22.4431 1.52171 21.4478 1.52171 21.4478C1.52171 21.4478 1.67221 21.1474 1.78508 20.9595C1.84228 20.8698 1.88529 20.1529 1.91563 19.3706C2.00263 19.6722 2.09741 19.9605 2.19896 20.2083C2.5752 21.2036 2.97025 21.6167 3.91085 22.0299C4.64289 22.3092 5.4225 22.4432 6.20595 22.4243C7.01485 22.4243 7.78616 22.274 8.40696 22.0299C10.0317 21.3215 10.4143 20.3169 10.9167 18.9979L10.9278 18.9688L11.1347 18.443C11.4921 17.4665 11.5486 17.3538 12.0941 17.3538C12.6397 17.3538 12.7149 17.4665 13.0724 18.443L13.2605 18.9688C13.7496 20.2834 14.1635 21.3538 15.7813 22.0299C16.4209 22.2928 17.1734 22.4243 18.0011 22.4243C18.8289 22.4243 19.6942 22.274 20.2774 22.0299C21.218 21.6167 21.6319 21.2036 22.0081 20.227C22.2701 19.5732 22.4758 18.6608 22.6339 17.9595C22.6801 17.7544 22.7223 17.5674 22.7606 17.4101L22.7657 17.3768C22.8 17.154 22.8188 17.0319 22.8547 16.9782C22.8735 16.9219 23.0052 16.828 23.1369 16.7904C23.2497 16.7528 23.3062 16.6402 23.3062 16.5275L23.1557 15.213V15.1942C23.1557 15.1003 23.0804 15.0064 22.9675 14.9688C22.9612 14.9672 22.9427 14.96 22.9123 14.9481C22.5832 14.8193 20.8537 14.1425 17.9259 14.1425C16.2077 14.1425 15.2545 14.4029 14.448 14.6233C14.4156 14.6321 14.3835 14.6409 14.3516 14.6495C14.2627 14.6723 14.176 14.6951 14.0906 14.7175C13.4711 14.8801 12.9185 15.0251 12.0753 15.0251C11.1665 15.0251 10.5616 14.8567 9.9247 14.6793C9.88918 14.6694 9.8536 14.6595 9.81788 14.6495C8.66171 14.2889 7.45461 14.1177 6.24358 14.1425C4.01656 14.1425 2.47373 14.5341 1.71036 14.7782L1.69102 14.7248C2.06727 14.4055 2.19895 13.2975 2.19895 13.2975C1.29597 11.6637 1.48409 9.12847 1.48409 9.12847C-0.359499 6.31156 0.0355547 0.489931 0.0355547 0.489931C1.86033 -0.636837 7.44755 6.12379 7.44755 6.12379C7.88021 6.53691 10.0436 7.56979 10.0436 7.56979C11.6991 8.13316 16.7595 7.6449 16.7595 7.6449C17.4556 7.45712 19.4873 5.8233 19.4873 5.8233C22.8735 -0.26125 26.0527 0.00166359 26.0527 0.00166359C29.1756 2.93126 25.921 12.4149 25.921 12.4149C26.1092 12.7153 26.1092 13.8797 26.1092 13.8797L26.3161 14.5745ZM0.74081 6.1426C0.74081 6.1426 0.261299 1.82331 0.581106 1.44772C0.581106 1.44772 1.99201 0.790441 6.11186 6.38674H5.2089L5.41583 7.02521C5.41583 7.02521 4.23064 7.77639 4.19304 8.49004C4.19304 8.49004 5.39701 8.37736 5.7168 8.84684C5.7168 8.84684 4.85144 10.9501 4.30591 10.6121L4.26828 11.3257C4.26828 11.3257 3.29005 11.645 3.08312 11.3257C3.08312 11.3257 3.44055 12.0206 3.72271 12.0957C3.72271 12.0957 3.12995 13.4666 1.90716 10.4055C1.90716 10.4055 1.86954 9.39142 1.90716 9.10976C1.85072 9.10976 0.966556 7.72007 0.74081 6.1426ZM27.0029 5.89847C27.0029 5.89847 27.0686 1.3726 25.7517 0.658986C25.7517 0.658986 23.6824 0.189498 21.7071 4.17073L22.6854 3.98295L21.7071 4.73413L22.6854 4.65903L21.5378 5.33507L22.7794 5.18483L20.8794 6.44306C20.8794 6.44306 21.7447 6.19892 22.1962 6.25528L21.4438 6.72476C21.4438 6.72476 21.9705 6.5933 22.3467 6.72476C22.3467 6.72476 21.4626 7.10035 20.8794 7.55104H21.8576L21.1616 8.33979C21.1616 8.33979 20.1457 9.59802 22.1774 10.4619C24.2091 11.3445 23.1557 12.0957 23.1557 12.0957C23.1557 12.0957 24.2844 12.9032 24.4349 13.3727C24.4349 13.3727 25.9306 11.1755 26.4762 9.18486C26.4762 9.16177 26.5189 8.90951 26.5797 8.55049L26.5798 8.55C26.7166 7.74163 26.945 6.3925 26.9841 5.89847H27.0029ZM20.2962 16.3774C20.2962 16.3774 19.2427 15.4009 17.0605 15.8703C14.8971 16.3398 14.9536 19.4009 14.9536 19.4009C14.9536 19.4009 16.0071 20.6216 18.3398 19.7201C20.6913 18.8187 20.2774 16.3774 20.2774 16.3774H20.2962ZM7.24059 16.2272C4.79503 15.2882 4.56929 17.6168 4.56929 17.6168C4.56929 17.6168 4.70097 19.8516 6.4881 20.2272C8.25645 20.6028 8.87725 19.7201 8.87725 19.7201C8.87725 19.7201 9.70497 17.1474 7.24059 16.2272ZM14.1823 22.1427C14.1823 22.1427 14.2011 21.0723 12.0001 21.0535C9.76143 20.9972 10.1377 22.1427 10.1377 22.1427C11.003 21.7671 11.9436 23.8516 12.2258 24.5277C11.9248 25.2976 10.7773 25.7859 10.7773 25.7859C11.5674 25.7108 12.3575 25.354 12.3575 25.354C13.5427 25.6544 14.2387 25.354 14.2387 25.354C13.5239 25.2976 12.6021 24.7906 12.3199 24.6028C12.2823 22.1615 14.2011 22.1615 14.2011 22.1615L14.1823 22.1427ZM6.1119 21.3538C7.71092 21.3538 8.76438 20.828 9.27231 19.7764C10.0436 18.2552 10.2505 16.9219 9.89311 16.2458C9.53569 15.5885 7.74852 15.2881 6.28118 15.2881C4.85148 15.2881 3.23362 15.5885 2.87619 16.3397C2.49995 17.166 3.08313 19.7951 3.53461 20.4149C4.02372 21.0722 4.79503 21.3538 6.1119 21.3538ZM18.02 21.3538C19.318 21.3538 20.1081 21.0722 20.5784 20.4336C21.0487 19.7951 21.6131 17.1472 21.2368 16.3397C20.8982 15.5698 19.2427 15.3068 17.8506 15.3068C16.3457 15.3068 14.5961 15.5885 14.2387 16.2458C13.8813 16.9219 14.107 18.2552 14.8407 19.7764C15.3486 20.828 16.4209 21.3538 18.02 21.3538Z" fill="black"/>
<path d="M7.44755 17.8803C7.25941 17.8803 7.12772 17.8052 7.12772 17.6925C7.12772 17.5986 7.27823 17.5235 7.44755 17.5235L7.63565 17.5423C7.54998 17.4111 7.45569 17.2856 7.3535 17.1667C7.3535 17.1667 7.07131 16.9038 6.7703 17.0728C6.7703 17.2606 6.69506 17.3921 6.61983 17.3921C6.56337 17.3921 6.50692 17.3545 6.48814 17.2794C6.1119 17.5986 5.43464 18.4437 6.67624 19.4766C6.67624 19.4766 7.05249 19.7019 7.37228 19.3263C7.71092 18.9508 8.08717 18.5001 7.71092 17.7489C7.71092 17.824 7.59805 17.8803 7.44755 17.8803ZM18.5843 17.5986L18.4714 17.2982C18.4526 17.3545 18.3962 17.3733 18.3774 17.3733C18.3022 17.3733 18.2457 17.3169 18.2457 17.223C18.2457 17.1479 18.3022 17.0916 18.3774 17.0916C18.0764 16.716 17.5685 16.4719 17.211 16.6033C17.211 16.6033 17.0041 16.6972 16.7972 16.8662V16.9413C16.7972 17.0916 16.7219 17.223 16.609 17.223C16.5714 17.223 16.5526 17.2043 16.515 17.1479C16.4021 17.3357 16.3269 17.6174 16.4021 17.9554C16.6279 18.8569 17.5685 19.0259 17.7378 18.9695C17.9259 18.9508 18.6596 18.2747 18.5843 17.5986ZM17.8695 17.5423C17.719 17.5423 17.5873 17.4672 17.5873 17.3733C17.5873 17.2794 17.719 17.1855 17.8695 17.1855C18.02 17.1855 18.1517 17.2794 18.1517 17.3733C18.1517 17.4672 18.02 17.5611 17.8695 17.5611V17.5423Z" fill="black"/>
<path d="M52.2393 36.9221L45.3729 27.0066H43.4351V36.9221H38.9203V13.4103H43.4351V22.6498H45.3162L51.2609 13.4103H56.4157L49.0786 24.8282L57.4125 36.9221H52.2393ZM60.1026 13.0723H64.4671V36.9221H60.1026V13.0723ZM79.7426 20.1146H83.9377V36.9221H80.6831L80.2129 35.3072H79.705C78.6703 36.4339 77.2595 37.0724 75.4344 37.0724C71.1642 37.0724 67.6087 33.5794 67.6087 28.509C67.6087 23.4385 71.183 19.9643 75.4344 19.9643C77.184 19.9643 78.7078 20.5653 79.7614 21.7672V20.1146H79.7426ZM76.0553 32.9785C78.2376 32.9785 79.7614 31.3259 79.7614 28.5278C79.7614 25.7484 78.2563 24.0958 76.0553 24.0958C74.0049 24.0958 71.9544 25.5982 71.9544 28.5278C71.9544 31.4949 74.0237 32.9785 76.0553 32.9785ZM98.7993 20.1333H103.333V36.9221H99.9843L99.3635 35.0443H98.9308C98.2536 35.8704 96.7864 37.0724 94.0209 37.0724C89.5437 37.0724 87.2487 33.9175 87.2487 29.2226V20.1146H91.8386V28.2085C91.8386 30.293 92.008 33.1851 94.905 33.1851C96.3725 33.1851 98.7993 32.4151 98.7993 28.0207V20.1333ZM115.636 25.0723C115.504 24.5089 114.959 23.5324 113.247 23.5324C111.836 23.5324 111.234 24.2461 111.234 24.9409C111.234 26.0864 112.739 26.4245 113.755 26.631C116.765 27.2695 119.775 28.1709 119.775 31.7203C119.775 35.1943 116.915 37.0912 113.454 37.0912C109.578 37.0912 106.587 34.7436 106.381 31.1945H110.519C110.632 32.1898 111.29 33.5043 113.341 33.5043C115.072 33.5043 115.467 32.6029 115.467 31.8893C115.467 30.6498 114.301 30.2742 113.153 30.0113C111.159 29.5794 106.888 28.7719 106.888 24.9409C106.888 21.6545 110.049 19.9831 113.322 19.9831C117.085 19.9831 119.568 22.2554 119.775 25.0723H115.636Z" fill="black"/>
</svg>
