<svg width="131" height="40" viewBox="0 0 131 40" fill="none" xmlns="http://www.w3.org/2000/svg">
<path d="M40.684 2.21335V2.22604V2.23873V17.6486H40.6813C40.6761 18.2399 40.1742 18.7182 39.5527 18.7182C39.5501 18.7182 39.5501 18.7177 39.5486 18.7177V18.719H23.4261C23.4103 18.7194 23.3949 18.724 23.3792 18.724C22.7552 18.724 22.248 18.2425 22.248 17.6483V17.5901V17.5799C22.8341 8.82057 30.1488 1.80818 39.3263 1.17316L39.5506 1.15527C40.1652 1.15527 40.666 1.61851 40.6819 2.20002H40.6845L40.684 2.21335ZM40.684 37.7869V37.8016H40.6813C40.6654 38.3827 40.1647 38.8458 39.55 38.8458L39.3258 38.8286C30.1485 38.193 22.8336 31.1805 22.2475 22.4213V22.4112V22.3525C22.2475 21.7584 22.7547 21.2768 23.3787 21.2768C23.3944 21.2768 23.4098 21.2806 23.4256 21.2819H39.5483V21.2832H39.5521C40.1737 21.2832 40.6758 21.7614 40.6808 22.3523H40.6834V37.7622V37.7749L40.684 37.7869Z" fill="black"/>
<path d="M19.614 2.21335C19.614 2.21716 19.6167 2.22097 19.6167 2.22604C19.6167 2.22985 19.614 2.23365 19.614 2.23873V17.6486H19.6114C19.61 18.2399 19.1047 18.7182 18.4832 18.7182L18.4805 18.7177V18.719H2.35874C2.34299 18.7194 2.32724 18.724 2.3095 18.724C1.68552 18.724 1.1808 18.2425 1.1808 17.6483C1.1808 17.6249 1.17816 17.6132 1.1808 17.5901V17.5799C1.76635 8.82057 9.0812 1.80818 18.2567 1.17316L18.4834 1.15527C19.098 1.15527 19.5983 1.61851 19.6116 2.20002H19.6143L19.614 2.21335ZM2.31365 38.8458C1.69902 38.8458 1.19874 38.3824 1.18297 37.7624L1.18562 22.3527C1.18694 21.7619 1.69231 21.2836 2.31629 21.2817C2.31629 21.2817 18.47 21.2766 18.4877 21.2766C19.1117 21.2766 19.6164 21.7582 19.6164 22.3524C19.6164 22.3758 19.6191 22.3875 19.6164 22.4209C19.0309 31.1802 11.716 38.1924 2.54055 38.828L2.31365 38.8458Z" fill="black"/>
<path d="M51.3941 5.77082V9.53527H57.8805V12.3586H51.3941V18.6868H47.7021V2.93668H58.6189V5.77082H51.3941ZM70.6467 6.98238V18.6868H67.3183L67.216 17.4536C66.8222 17.9224 66.349 18.2811 65.7961 18.5299C65.2432 18.7787 64.6109 18.9031 63.8989 18.9031C62.6189 18.9031 61.6157 18.5498 60.8887 17.843C60.1616 17.1363 59.798 16.0401 59.798 14.5545V6.98238H63.3422V14.5762C63.3422 15.117 63.488 15.5191 63.7798 15.7823C64.0713 16.0455 64.4747 16.1771 64.9896 16.1771C65.9969 16.1771 66.6973 15.8454 67.0911 15.1819V6.98238H70.6467ZM82.6235 7.82613C83.3013 8.53285 83.6403 9.69032 83.6403 11.2985V18.6868H80.0844V11.2769C80.0844 10.599 79.9349 10.132 79.6359 9.87602C79.3365 9.62002 78.8691 9.49202 78.2328 9.49202C77.3921 9.49202 76.7636 9.81652 76.3472 10.4656V18.6868H72.8142V6.98238H76.1313L76.2562 8.33455C76.6804 7.82252 77.1896 7.4331 77.7842 7.16627C78.3785 6.89944 79.0395 6.76602 79.7663 6.76602C80.9932 6.76602 81.9457 7.11938 82.6235 7.82613ZM96.6108 2.07129V18.6868H93.4189L93.2485 17.4211C92.4455 18.4091 91.4194 18.9031 90.1699 18.9031C89.1701 18.9031 88.3106 18.6489 87.5911 18.1405C86.8716 17.6321 86.3245 16.9307 85.9495 16.0365C85.5746 15.1423 85.3871 14.1219 85.3871 12.9752V12.748C85.3871 11.5581 85.5746 10.5125 85.9495 9.61099C86.3245 8.70955 86.8716 8.01002 87.5911 7.51243C88.3106 7.01482 89.1777 6.76602 90.1925 6.76602C91.3438 6.76602 92.298 7.1843 93.0552 8.02085V2.07129H96.6108ZM92.2771 15.8905C92.6066 15.6994 92.866 15.4235 93.0552 15.063V10.6062C92.684 9.86341 92.0291 9.49202 91.0899 9.49202C90.3402 9.49202 89.7929 9.78407 89.4483 10.3682C89.1038 10.9524 88.9316 11.7456 88.9316 12.748V12.9752C88.9316 13.956 89.0983 14.7348 89.4312 15.3117C89.7645 15.8887 90.3098 16.1771 91.0673 16.1771C91.5443 16.1771 91.9477 16.0816 92.2771 15.8905ZM102.288 2.71492C102.652 3.03582 102.834 3.4523 102.834 3.96432C102.834 4.46916 102.652 4.88199 102.288 5.20293C101.925 5.52382 101.448 5.6843 100.857 5.6843C100.266 5.6843 99.7911 5.52382 99.4314 5.20293C99.0718 4.88199 98.8919 4.46916 98.8919 3.96432C98.8919 3.4523 99.0718 3.03582 99.4314 2.71492C99.7911 2.39401 100.266 2.23355 100.857 2.23355C101.448 2.23355 101.925 2.39401 102.288 2.71492ZM99.0962 18.6868V6.98238H102.652V18.6868H99.0962ZM114.867 7.82613C115.545 8.53285 115.884 9.69032 115.884 11.2985V18.6868H112.328V11.2769C112.328 10.599 112.179 10.132 111.879 9.87602C111.58 9.62002 111.113 9.49202 110.477 9.49202C109.636 9.49202 109.007 9.81652 108.591 10.4656V18.6868H105.058V6.98238H108.375L108.5 8.33455C108.924 7.82252 109.433 7.4331 110.028 7.16627C110.622 6.89944 111.283 6.76602 112.01 6.76602C113.237 6.76602 114.19 7.11938 114.867 7.82613ZM129.093 6.98238V18.2433C129.093 19.3034 128.841 20.2138 128.338 20.9746C127.834 21.7355 127.126 22.3124 126.214 22.7054C125.301 23.0985 124.239 23.295 123.027 23.295C122.186 23.295 121.336 23.1399 120.477 22.8298C119.617 22.5197 118.941 22.0834 118.449 21.5209L119.982 19.4548C120.338 19.8298 120.763 20.1273 121.255 20.3472C121.747 20.5672 122.289 20.6772 122.879 20.6772C123.728 20.6772 124.384 20.4644 124.85 20.0389C125.316 19.6135 125.549 19.0113 125.549 18.2324V17.6916C124.784 18.4993 123.818 18.9031 122.652 18.9031C121.645 18.9031 120.765 18.6489 120.011 18.1405C119.257 17.6321 118.678 16.9272 118.273 16.0257C117.868 15.1242 117.665 14.1074 117.665 12.9752V12.748C117.665 11.5653 117.868 10.5233 118.273 9.62182C118.678 8.72038 119.259 8.01905 120.017 7.51782C120.774 7.01663 121.66 6.76602 122.675 6.76602C123.993 6.76602 125.019 7.1951 125.753 8.0533L125.89 6.98238H129.093ZM125.549 15.2469V10.4223C125.14 9.8021 124.481 9.49202 123.572 9.49202C122.807 9.49202 122.222 9.79307 121.817 10.3952C121.412 10.9974 121.209 11.7817 121.209 12.748V12.9752C121.209 13.9199 121.408 14.6898 121.806 15.2847C122.203 15.8797 122.785 16.1771 123.55 16.1771C124.458 16.1771 125.125 15.867 125.549 15.2469ZM59.9481 35.8168C59.3952 36.6496 58.6209 37.2968 57.6249 37.7585C56.629 38.2199 55.4646 38.4507 54.1316 38.4507C52.708 38.4507 51.4773 38.1424 50.4399 37.526C49.4022 36.9093 48.607 36.0277 48.0541 34.881C47.5012 33.7343 47.2248 32.3785 47.2248 30.8138V29.9052C47.2248 28.3546 47.5088 27.0024 48.0767 25.8485C48.645 24.6947 49.4494 23.8076 50.4909 23.1874C51.5323 22.5672 52.7459 22.2571 54.1316 22.2571C55.5026 22.2571 56.6765 22.4969 57.6533 22.9765C58.6302 23.4561 59.3894 24.1195 59.931 24.9669C60.4726 25.8143 60.7962 26.7896 60.9023 27.8929H57.2215C57.161 26.9555 56.8961 26.2614 56.4264 25.8107C55.957 25.3599 55.1919 25.1346 54.1316 25.1346C53.0487 25.1346 52.2498 25.5132 51.7349 26.2704C51.2197 27.0276 50.9623 28.2318 50.9623 29.8835V30.8138C50.9623 31.9388 51.0664 32.8474 51.2747 33.5396C51.4831 34.2321 51.8181 34.7441 52.28 35.0757C52.7422 35.4074 53.3594 35.5732 54.1316 35.5732C55.1238 35.5732 55.868 35.3571 56.3641 34.9243C56.8599 34.4916 57.1384 33.8246 57.1989 32.9229H60.8794C60.8113 34.0193 60.501 34.9838 59.9481 35.8168ZM66.0575 22.2626C66.4208 22.5835 66.6025 22.9999 66.6025 23.512C66.6025 24.0168 66.4208 24.4296 66.0575 24.7506C65.6938 25.0715 65.2168 25.2319 64.6259 25.2319C64.0354 25.2319 63.5601 25.0715 63.2002 24.7506C62.8406 24.4296 62.6607 24.0168 62.6607 23.512C62.6607 22.9999 62.8406 22.5835 63.2002 22.2626C63.5601 21.9416 64.0354 21.7812 64.6259 21.7812C65.2168 21.7812 65.6938 21.9416 66.0575 22.2626ZM62.8653 38.2343V26.53H66.4208V38.2343H62.8653ZM76.0971 26.4435L76.0519 29.7104C75.4686 29.6527 75.0597 29.6238 74.825 29.6238C74.204 29.6238 73.6983 29.7177 73.3083 29.9052C72.9182 30.0927 72.6325 30.3738 72.4505 30.7488V38.2343H68.9063V26.53H72.2349L72.3482 27.9688C72.6589 27.4351 73.0431 27.0258 73.5013 26.7409C73.9597 26.4561 74.4801 26.3137 75.0635 26.3137C75.4874 26.3137 75.8319 26.3569 76.0971 26.4435ZM87.807 34.1021C87.807 34.946 87.5798 35.6977 87.1252 36.3577C86.6708 37.0174 86.0536 37.5313 85.2735 37.8991C84.4937 38.2668 83.6226 38.4507 82.6609 38.4507C81.4264 38.4507 80.3794 38.1946 79.5197 37.6827C78.6602 37.1707 78.0166 36.4693 77.5886 35.5788C77.1606 34.6882 76.9467 33.6696 76.9467 32.5229V32.2524C76.9467 31.1057 77.1606 30.0854 77.5886 29.191C78.0166 28.2968 78.6584 27.5937 79.5142 27.0817C80.3699 26.5697 81.4151 26.3137 82.6496 26.3137C83.6644 26.3137 84.5598 26.4994 85.3361 26.8707C86.1124 27.2421 86.7183 27.7793 87.1536 28.4827C87.5891 29.1857 87.807 30.0168 87.807 30.976H84.4783C84.4705 30.4063 84.3024 29.941 83.973 29.5804C83.6435 29.2199 83.1758 29.0396 82.5699 29.0396C81.7672 29.0396 81.2201 29.3263 80.9286 29.8996C80.6368 30.4729 80.491 31.2571 80.491 32.2524V32.5229C80.491 33.5396 80.6368 34.3274 80.9286 34.8866C81.2201 35.4454 81.7747 35.7249 82.5928 35.7249C83.1607 35.7249 83.6151 35.5788 83.9559 35.2866C84.2966 34.9946 84.4708 34.5999 84.4783 34.1021H87.807ZM89.679 38.2343V21.6189H93.2346V38.2343H89.679ZM106.614 33.4857H98.9009C99.0371 34.1779 99.3515 34.7241 99.8438 35.1243C100.336 35.5246 100.965 35.7249 101.729 35.7249C102.32 35.7249 102.865 35.6238 103.365 35.4218C103.865 35.2199 104.293 34.9063 104.649 34.4807L106.319 36.3738C105.887 36.9579 105.255 37.4502 104.422 37.8504C103.589 38.2507 102.616 38.4507 101.502 38.4507C100.238 38.4507 99.1356 38.1966 98.1964 37.6882C97.2575 37.1796 96.538 36.4929 96.0382 35.6274C95.5383 34.7621 95.2882 33.8102 95.2882 32.7716V32.3604C95.2882 31.1996 95.5195 30.1629 95.9814 29.2504C96.4433 28.3382 97.1115 27.6208 97.9863 27.0979C98.8612 26.5751 99.9044 26.3137 101.116 26.3137C102.275 26.3137 103.267 26.5462 104.092 27.0114C104.918 27.4765 105.545 28.1399 105.972 29.0018C106.4 29.8635 106.614 30.8785 106.614 32.0468V33.4857ZM103.138 30.976C103.138 30.3702 102.966 29.896 102.621 29.5535C102.276 29.211 101.767 29.0396 101.093 29.0396C99.889 29.0396 99.1623 29.7752 98.9122 31.2463H103.138V30.976Z" fill="black"/>
</svg>
