<svg width="153" height="40" viewBox="0 0 153 40" fill="none" xmlns="http://www.w3.org/2000/svg">
<mask id="mask0_606_104" style="mask-type:luminance" maskUnits="userSpaceOnUse" x="0" y="0" width="153" height="40">
<path d="M152.57 0H0V40H152.57V0Z" fill="white"/>
</mask>
<g mask="url(#mask0_606_104)">
<path d="M52.5519 0.286133H60.4629C63.5708 0.286133 66.6789 1.7147 66.6789 5.429C66.6789 7.71469 65.2662 9.28614 63.1469 9.85755C65.69 10.1433 67.5263 12.1433 67.5263 14.7147C67.5263 19.1433 63.7122 20.5719 59.8979 20.5719H52.6931V0.286133H52.5519ZM56.2248 8.57186H59.4741C61.8757 8.57186 63.0057 7.57186 63.0057 6.00041C63.0057 4.28614 61.8757 3.429 59.0502 3.429H56.0836V8.57186H56.2248ZM56.2248 17.5719H59.4741C61.3106 17.5719 63.8534 17.2861 63.8534 14.5719C63.8534 12.429 62.4407 11.7147 59.6152 11.7147H56.2248V17.5719Z" fill="black"/>
<path d="M69.3629 0.286133H82.6422V3.57186H72.8945V8.57186H82.0771V11.8576H72.8945V17.429H83.3484V20.7147H69.504V0.286133H69.3629Z" fill="black"/>
<path d="M92.3898 0.286133H95.4976L104.115 20.7147H100.018L98.1816 16.0004H89.4229L87.5866 20.7147H83.631L92.3898 0.286133ZM96.9103 12.8576L93.8022 4.57186L90.6944 12.8576H96.9103Z" fill="black"/>
<path d="M104.398 17.429L115.134 3.57186H104.539V0.286133H119.513V3.57186L108.777 17.429H119.796V20.7147H104.398V17.429Z" fill="black"/>
<path d="M121.491 0.286133H134.771V3.57186H125.023V8.57186H134.205V11.8576H125.023V17.429H135.336V20.7147H121.491V0.286133Z" fill="black"/>
<path d="M137.313 0.286133H144.377C148.191 0.286133 151.864 1.57185 151.864 6.14328C151.864 9.14328 150.169 11.2861 147.202 11.7147L152.57 20.7147H148.191L143.529 12.1433H140.845V20.7147H137.313V0.286133ZM143.812 9.00041C145.789 9.00041 148.191 8.85755 148.191 6.14328C148.191 3.71469 145.931 3.429 144.094 3.429H140.986V9.00041H143.812Z" fill="black"/>
<path d="M70.3518 27.1436H71.7645V32.4293H78.404V27.1436H79.8168V39.7148H78.404V33.8579H71.7645V39.7148H70.3518V27.1436Z" fill="black"/>
<path d="M89.2817 40.0003C88.2928 40.0003 87.4454 39.8575 86.7389 39.5717C85.8915 39.2861 85.3262 38.7144 84.62 38.1431C84.0549 37.5717 83.6311 36.8575 83.2072 36.0003C82.9249 35.1431 82.7834 34.2861 82.7834 33.4289C82.7834 32.4289 82.9249 31.5717 83.2072 30.8575C83.4899 30.0003 83.9137 29.2861 84.62 28.7145C85.185 28.1431 85.8915 27.7146 86.7389 27.286C87.5866 27.0003 88.4343 26.8574 89.2817 26.8574C90.2706 26.8574 91.1183 27.0003 91.8248 27.286C92.6722 27.5717 93.2372 28.1431 93.9437 28.7145C94.5088 29.2861 94.9326 30.0003 95.3565 30.8575C95.6389 31.7144 95.7803 32.5717 95.7803 33.4289C95.7803 34.4289 95.6389 35.2861 95.3565 36.0003C95.0738 36.8575 94.65 37.5717 93.9437 38.1431C93.3787 38.7144 92.6722 39.1431 91.8248 39.5717C91.1183 39.8575 90.2706 40.0003 89.2817 40.0003ZM89.2817 38.5717C89.9882 38.5717 90.6944 38.4289 91.2595 38.1431C91.8248 37.8575 92.3898 37.4289 92.8137 37.0003C93.2372 36.5717 93.5199 36.0003 93.8025 35.2861C94.0849 34.7144 94.2261 34.0003 94.2261 33.2861C94.2261 32.5717 94.0849 31.8575 93.8025 31.2861C93.5199 30.7144 93.2372 30.1431 92.8137 29.5717C92.3898 29.1431 91.8248 28.7145 91.2595 28.4289C90.6944 28.1431 89.9882 28.0003 89.2817 28.0003C88.5755 28.0003 87.8693 28.1431 87.3039 28.4289C86.7389 28.7145 86.1739 29.1431 85.75 29.5717C85.3262 30.0003 85.0438 30.5717 84.7612 31.2861C84.4788 31.8575 84.3373 32.5717 84.3373 33.2861C84.3373 34.0003 84.4788 34.7144 84.7612 35.2861C85.0438 35.8575 85.3262 36.4289 85.75 37.0003C86.1739 37.4289 86.7389 37.8575 87.3039 38.1431C88.0105 38.4289 88.5755 38.5717 89.2817 38.5717Z" fill="black"/>
<path d="M98.7469 27.1436H100.866L105.104 37.0007L109.342 27.1436H111.602V39.7148H110.19V29.1434L105.81 39.7148H104.963L100.301 29.1434V39.7148H98.8881V27.1436H98.7469Z" fill="black"/>
<path d="M115.275 27.1436H123.045V28.5721H116.688V32.5721H122.621V34.0007H116.688V38.4293H123.328V39.8579H115.275V27.1436Z" fill="black"/>
<path d="M132.228 29.2864C131.945 28.8578 131.662 28.5719 131.239 28.4291C130.815 28.2864 130.391 28.1433 129.967 28.1433C129.685 28.1433 129.261 28.1433 128.978 28.2864C128.696 28.4291 128.413 28.4291 128.131 28.715C127.848 28.8578 127.707 29.1433 127.566 29.4291C127.425 29.715 127.283 30.0005 127.283 30.4291C127.283 30.715 127.283 31.0005 127.425 31.1433C127.566 31.4291 127.707 31.5719 127.848 31.715C127.99 31.8578 128.272 32.0005 128.696 32.1433C128.978 32.2864 129.402 32.4292 129.967 32.5719C130.391 32.715 130.956 32.8578 131.38 33.0005C131.804 33.1433 132.228 33.4291 132.51 33.715C132.793 34.0005 133.075 34.2864 133.358 34.715C133.499 35.1433 133.64 35.5719 133.64 36.2864C133.64 36.8578 133.499 37.4291 133.217 37.8578C132.934 38.2864 132.651 38.715 132.228 39.0005C131.804 39.2864 131.38 39.5719 130.815 39.715C130.391 39.8578 129.967 40.0005 129.402 40.0005C128.978 40.0005 128.696 40.0005 128.272 39.8578C127.848 39.8578 127.566 39.715 127.283 39.5719C127.001 39.4291 126.577 39.2864 126.294 39.0005C126.012 38.715 125.729 38.5719 125.588 38.1433L126.859 37.1433C127.142 37.5719 127.566 38.0005 127.99 38.1433C128.413 38.4291 128.978 38.4292 129.543 38.4292C129.826 38.4292 130.109 38.4291 130.532 38.2864L131.38 37.8578C131.662 37.715 131.804 37.4292 131.945 37.1433C132.086 36.8578 132.228 36.5719 132.228 36.1433C132.228 35.7147 132.228 35.4291 132.086 35.1433C131.945 34.8578 131.804 34.715 131.521 34.5719C131.239 34.4291 130.956 34.2864 130.532 34.1433C130.109 34.0005 129.685 33.8578 129.12 33.715C128.696 33.5719 128.272 33.4292 127.848 33.2864C127.425 33.1433 127.142 32.8578 126.859 32.5719C126.577 32.2864 126.436 32.0005 126.153 31.5719C125.871 31.4291 125.729 31.0005 125.729 30.4291C125.729 29.8578 125.871 29.2864 126.012 28.8578C126.294 28.4291 126.577 28.0005 127.001 27.7148C127.425 27.4291 127.848 27.1434 128.413 27.0006C128.978 26.8577 129.402 26.7148 129.967 26.7148C130.674 26.7148 131.239 26.8577 131.945 27.0006C132.51 27.2863 133.075 27.572 133.499 28.1433L132.228 29.2864Z" fill="black"/>
<path d="M12.8554 25.8573C24.5807 12.7144 39.9791 12.8573 46.0536 30.7146C46.0536 31.0001 44.9235 31.5715 44.3585 31.7146C28.1125 36.4287 18.0823 30.0001 15.6808 29.0001C15.1157 28.7146 11.1602 32.0001 9.32367 33.1429C7.62845 34.1429 4.37926 32.8573 2.96659 32.1429C1.97769 31.5715 5.22687 30.2859 5.22687 30.2859C7.3459 29.2859 6.4983 32.2859 8.89988 31.1429L9.04112 31.0001C9.1824 31.0001 9.1824 30.8573 9.32367 30.8573C26.2759 16.8573 36.4474 26.7144 36.7298 27.4287C24.8632 22.8573 18.3649 27.4287 18.3649 27.4287C25.8521 30.0001 32.6331 31.8573 44.782 30.1429C33.4808 14.4287 23.168 20.7144 15.1157 25.8573C14.5506 26.143 12.9966 27.2859 12.7141 27.143C12.4316 27.0001 12.5729 26.2859 12.8554 25.8573Z" fill="black"/>
<path d="M44.217 6.00053C43.9346 5.7148 42.9457 5.28625 42.3807 5.28625C26.5585 2.42909 21.049 14.8577 20.9078 18.2862C22.0379 17.5719 23.1681 17.1434 24.4395 16.7148V16.5719C24.2982 15.1434 31.503 4.7148 42.9457 6.7148C41.2504 9.14339 34.187 14.4291 32.2092 15.8577C33.3393 16.0005 34.4697 16.2862 35.4585 16.7148C38.5664 15.2862 44.4997 7.00053 44.217 6.00053Z" fill="black"/>
<path d="M35.1759 9.85742C34.0458 10.0003 27.5472 13.8574 26.9822 15.4289V15.7146C27.971 15.5717 28.9599 15.4289 29.9488 15.4289C31.2203 14.286 35.4582 9.85742 35.1759 9.85742Z" fill="black"/>
<path d="M16.1046 30.4289C15.257 31.8575 14.1268 32.2861 13.5617 32.8575C13.138 33.4289 14.1268 33.4289 15.8221 33.2861C17.0935 33.2861 17.2348 33.4289 17.6585 33.2861C18.0824 33.1431 17.6585 32.2861 18.0824 31.5717C18.0824 31.4289 18.2236 31.4289 18.2236 31.2861C17.376 30.8575 16.6697 30.5717 16.2459 30.2861C16.2459 30.4289 16.1046 30.4289 16.1046 30.4289Z" fill="black"/>
</g>
</svg>
