<svg width="133" height="40" viewBox="0 0 133 40" fill="none" xmlns="http://www.w3.org/2000/svg">
<mask id="mask0_606_106" style="mask-type:luminance" maskUnits="userSpaceOnUse" x="0" y="0" width="133" height="40">
<path d="M132.505 0H0V40H132.505V0Z" fill="white"/>
</mask>
<g mask="url(#mask0_606_106)">
<path fill-rule="evenodd" clip-rule="evenodd" d="M82.204 31.2812C74.5036 36.9667 63.3429 40.0001 53.7336 40.0001C40.2597 40.0001 28.1298 35.0081 18.9532 26.7053C18.2322 26.0524 18.8782 25.1626 19.7434 25.671C29.6469 31.4431 41.8921 34.9156 54.5411 34.9156C63.0717 34.9156 72.4561 33.1476 81.0848 29.4787C82.3884 28.924 83.4784 30.3337 82.204 31.2812Z" fill="black"/>
<path fill-rule="evenodd" clip-rule="evenodd" d="M85.4051 27.612C84.4246 26.3525 78.8988 27.0169 76.4186 27.3116C75.663 27.404 75.5476 26.7454 76.2284 26.2716C80.6292 23.1689 87.8506 24.0644 88.6927 25.1045C89.5349 26.1502 88.4737 33.4014 84.338 36.8622C83.7036 37.3939 83.098 37.1108 83.3805 36.4058C84.3092 34.0833 86.3914 28.8775 85.4051 27.612Z" fill="black"/>
<path fill-rule="evenodd" clip-rule="evenodd" d="M76.5917 4.36854V1.35252C76.5917 0.896069 76.9378 0.589844 77.3532 0.589844H90.8327C91.2653 0.589844 91.6114 0.901849 91.6114 1.35252V3.93521C91.6056 4.36854 91.242 4.93479 90.5962 5.83034L83.6113 15.8202C86.2068 15.7567 88.9465 16.1438 91.2997 17.4727C91.8305 17.7731 91.9747 18.2123 92.0151 18.6456V21.8638C92.0151 22.303 91.5304 22.8172 91.023 22.5514C86.8759 20.3732 81.3674 20.1363 76.782 22.5745C76.3147 22.8287 75.8245 22.3203 75.8245 21.8812V18.8247C75.8245 18.3336 75.8303 17.4958 76.3206 16.7505L84.413 5.12546H77.3704C76.9378 5.12546 76.5917 4.81923 76.5917 4.36854Z" fill="black"/>
<path fill-rule="evenodd" clip-rule="evenodd" d="M27.4205 23.1864H23.3196C22.9273 23.1575 22.6159 22.8628 22.587 22.4873V1.40394C22.587 0.98216 22.9389 0.647043 23.3772 0.647043H27.2014C27.5993 0.664366 27.9166 0.970602 27.9454 1.35194V4.10796H28.0203C29.0183 1.44438 30.8928 0.202148 33.419 0.202148C35.986 0.202148 37.5893 1.44438 38.7429 4.10796C39.7351 1.44438 41.9903 0.202148 44.407 0.202148C46.1257 0.202148 48.0061 0.912821 49.1538 2.5075C50.4516 4.28129 50.1865 6.85821 50.1865 9.11734L50.1807 22.4237C50.1807 22.8455 49.8288 23.1864 49.3903 23.1864H45.2952C44.8856 23.1575 44.557 22.8281 44.557 22.4237V11.2494C44.557 10.3596 44.6377 8.1409 44.4417 7.29734C44.1358 5.88176 43.2188 5.4831 42.0305 5.4831C41.0386 5.4831 40.0002 6.14754 39.5792 7.21068C39.1583 8.27379 39.1985 10.0533 39.1985 11.2494V22.4237C39.1985 22.8455 38.8466 23.1864 38.4085 23.1864H34.313C33.8979 23.1575 33.5749 22.8281 33.5749 22.4237L33.569 11.2494C33.569 8.89779 33.9556 5.43687 31.0428 5.43687C28.0954 5.43687 28.2108 8.81112 28.2108 11.2494V22.4237C28.2108 22.8455 27.8589 23.1864 27.4205 23.1864Z" fill="black"/>
<path fill-rule="evenodd" clip-rule="evenodd" d="M103.216 0.202148C109.301 0.202148 112.595 5.43687 112.595 12.0929C112.595 18.5237 108.955 23.6255 103.216 23.6255C97.2408 23.6255 93.9875 18.3908 93.9875 11.8676C93.9875 5.30398 97.281 0.202148 103.216 0.202148ZM103.251 4.50665C100.228 4.50665 100.038 8.63201 100.038 11.2031C100.038 13.7801 99.9977 19.2806 103.216 19.2806C106.394 19.2806 106.544 14.8432 106.544 12.1391C106.544 10.3596 106.469 8.23334 105.933 6.54621C105.472 5.07865 104.554 4.50665 103.251 4.50665Z" fill="black"/>
<path fill-rule="evenodd" clip-rule="evenodd" d="M120.485 23.1864H116.402C115.992 23.1575 115.664 22.8281 115.664 22.4237L115.658 1.3346C115.692 0.947491 116.033 0.647043 116.448 0.647043H120.249C120.607 0.664366 120.901 0.907046 120.982 1.23638V4.4604H121.056C122.204 1.57727 123.813 0.202148 126.645 0.202148C128.486 0.202148 130.279 0.866602 131.433 2.68662C132.506 4.37373 132.506 7.21068 132.506 9.25023V22.5219C132.46 22.8917 132.119 23.1864 131.716 23.1864H127.603C127.228 23.1575 126.917 22.8801 126.876 22.5219V11.0703C126.876 8.7649 127.142 5.39065 124.309 5.39065C123.312 5.39065 122.395 6.06087 121.939 7.07776C121.362 8.36623 121.287 9.6489 121.287 11.0703V22.4237C121.281 22.8455 120.924 23.1864 120.485 23.1864Z" fill="black"/>
<path fill-rule="evenodd" clip-rule="evenodd" d="M65.8461 13.1157C65.8461 14.7162 65.8866 16.0508 65.0791 17.4722C64.4274 18.6277 63.389 19.3384 62.2412 19.3384C60.6667 19.3384 59.7439 18.1366 59.7439 16.3628C59.7439 12.8615 62.8757 12.2259 65.8461 12.2259V13.1157ZM69.9818 23.1287C69.7108 23.3714 69.3185 23.3887 69.0129 23.2269C67.6516 22.0945 67.4034 21.5687 66.6594 20.4882C64.41 22.7878 62.8122 23.4754 59.8994 23.4754C56.4446 23.4754 53.7625 21.3433 53.7625 17.0735C53.7625 13.7397 55.5622 11.469 58.1344 10.3597C60.3609 9.37744 63.4699 9.20411 65.8461 8.93255V8.40097C65.8461 7.42452 65.9213 6.26897 65.3445 5.42538C64.8484 4.66849 63.8909 4.35649 63.0429 4.35649C61.48 4.35649 60.0899 5.15961 59.7497 6.82363C59.6804 7.19341 59.4092 7.55741 59.0343 7.57474L55.0603 7.14719C54.7259 7.07208 54.3509 6.80052 54.4488 6.2863C55.3603 1.45602 59.7208 0 63.6197 0C65.6154 0 68.2226 0.531563 69.7973 2.04536C71.7928 3.91161 71.6026 6.40186 71.6026 9.11166V15.5135C71.6026 17.4375 72.3984 18.2811 73.1482 19.3211C73.4078 19.6909 73.4655 20.1358 73.131 20.4131C72.2947 21.1122 70.8064 22.4122 69.9876 23.1402L69.9818 23.1287Z" fill="black"/>
<path fill-rule="evenodd" clip-rule="evenodd" d="M12.0837 13.1157C12.0837 14.7162 12.1241 16.0508 11.3166 17.4722C10.6648 18.6278 9.63238 19.3384 8.47879 19.3384C6.90414 19.3384 5.98706 18.1366 5.98706 16.3629C5.98706 12.8615 9.11901 12.2259 12.0837 12.2259V13.1157ZM16.2193 23.1287C15.9482 23.3713 15.556 23.3887 15.2503 23.2269C13.8891 22.0945 13.6468 21.5687 12.897 20.4882C10.6475 22.7878 9.05557 23.4753 6.13702 23.4753C2.68783 23.4753 0 21.3433 0 17.0735C0 13.7397 1.80535 11.469 4.37207 10.3597C6.59845 9.37743 9.70736 9.2041 12.0837 8.93254V8.40099C12.0837 7.42452 12.1587 6.26896 11.5877 5.4254C11.0859 4.66849 10.1284 4.35649 9.28628 4.35649C7.7232 4.35649 6.32736 5.1596 5.98706 6.82363C5.91784 7.1934 5.64676 7.5574 5.27762 7.57474L1.29777 7.14718C0.963235 7.07207 0.594092 6.80052 0.686377 6.28629C1.60347 1.45602 5.95822 0 9.85732 0C11.853 0 14.4601 0.531563 16.0347 2.04535C18.0304 3.9116 17.84 6.40185 17.84 9.11166V15.5135C17.84 17.4375 18.636 18.2811 19.3859 19.3211C19.6512 19.6909 19.7089 20.1358 19.3743 20.4131C18.538 21.1122 17.0499 22.4122 16.2308 23.1402L16.2193 23.1287Z" fill="black"/>
</g>
</svg>
