<svg width="141" height="40" viewBox="0 0 141 40" fill="none" xmlns="http://www.w3.org/2000/svg">
<path d="M48.4139 22.2714C47.1992 21.5965 46.5692 21.0566 46.5692 20.2917C46.5692 19.3468 47.4242 18.7169 48.7739 18.7169C50.3486 18.7169 51.7436 19.3918 51.7436 19.3918L52.8233 16.0172C52.8233 16.0172 51.8336 15.2073 48.8189 15.2073C44.6795 15.2073 41.7997 17.592 41.7997 20.9216C41.7997 22.8114 43.1497 24.2512 44.9494 25.2861C46.3892 26.096 46.9292 26.6809 46.9292 27.5358C46.9292 28.4357 46.2092 29.1557 44.8595 29.1557C42.8797 29.1557 40.99 28.1207 40.99 28.1207L39.82 31.4954C39.82 31.4954 41.5747 32.6651 44.4994 32.6651C48.7739 32.6651 51.8336 30.5504 51.8336 26.7709C51.8336 24.7461 50.2586 23.3063 48.4139 22.2714ZM65.4219 15.1623C63.3069 15.1623 61.6872 16.1522 60.3825 17.682L60.2925 17.637L62.1372 8.09823H57.4128L52.8233 32.3501H57.5478L59.1225 24.0712C59.7525 20.9216 61.3722 19.0319 62.8572 19.0319C63.9369 19.0319 64.3419 19.7518 64.3419 20.7866C64.3419 21.4616 64.2519 22.2265 64.1169 22.9014L62.3172 32.3951H67.0417L68.8864 22.5864C69.1114 21.5516 69.2464 20.3367 69.2464 19.4818C69.2914 16.7821 67.8964 15.1623 65.4219 15.1623ZM80 15.1623C74.2858 15.1623 70.5061 20.3367 70.5061 26.051C70.5061 29.7404 72.7558 32.7101 77.0303 32.7101C82.6547 32.7101 86.4342 27.6708 86.4342 21.8215C86.4342 18.4019 84.4544 15.1623 80 15.1623ZM77.6603 29.0657C76.0406 29.0657 75.3656 27.6708 75.3656 25.961C75.3656 23.2613 76.7603 18.8069 79.37 18.8069C81.0347 18.8069 81.6197 20.2467 81.6197 21.6415C81.6197 24.6112 80.18 29.0657 77.6603 29.0657ZM98.5828 15.1623C95.3881 15.1623 93.5883 17.997 93.5883 17.997H93.4983L93.7683 15.4323H89.5839C89.3589 17.1421 88.9989 19.7518 88.6389 21.7315L85.3544 39.0993H90.0786L91.3836 32.0801H91.4736C91.4736 32.0801 92.4633 32.7101 94.2633 32.7101C99.8425 32.7101 103.487 26.9959 103.487 21.2366C103.487 18.042 102.047 15.1623 98.5828 15.1623ZM94.0383 29.1107C92.8233 29.1107 92.0586 28.4357 92.0586 28.4357L92.8683 23.9813C93.4083 21.0116 94.9831 19.0769 96.6028 19.0769C98.0428 19.0769 98.4928 20.4267 98.4928 21.6865C98.5378 24.7461 96.6928 29.1107 94.0383 29.1107ZM110.236 8.3682C108.706 8.3682 107.537 9.58303 107.537 11.1129C107.537 12.5077 108.436 13.4976 109.786 13.4976H109.876C111.361 13.4976 112.621 12.5077 112.666 10.7529C112.621 9.35806 111.676 8.3682 110.236 8.3682ZM103.622 32.3501H108.346L111.586 15.5673H106.817L103.622 32.3501ZM123.644 15.5223H120.36L120.54 14.7124C120.81 13.0926 121.8 11.6528 123.374 11.6528C124.229 11.6528 124.904 11.8778 124.904 11.8778L125.849 8.14323C125.849 8.14323 125.039 7.73828 123.284 7.73828C121.62 7.73828 119.91 8.23323 118.65 9.31309C117.03 10.7079 116.266 12.6876 115.906 14.6674L115.771 15.4773H113.566L112.891 19.0319H115.096L112.486 32.3501H117.21L119.73 19.0769H123.015L123.644 15.5223ZM135.073 15.5673C135.073 15.5673 132.104 23.0364 130.754 27.1308H130.664C130.574 25.826 129.494 15.5673 129.494 15.5673H124.499L127.334 31.0004C127.424 31.3604 127.379 31.5404 127.244 31.8104C126.704 32.8901 125.759 33.9251 124.679 34.6448C123.779 35.3198 122.79 35.7248 121.98 35.9948L123.284 39.9993C124.229 39.7743 126.254 39.0093 127.919 37.4346C130.079 35.4098 132.059 32.2601 134.128 28.0307L139.932 15.5673H135.073Z" fill="black"/>
<path d="M22.5872 39.01L34.3308 36.4456C34.3308 36.4456 30.1011 7.78403 30.0561 7.60406C30.0111 7.42408 29.8764 7.28908 29.6964 7.28908C29.5614 7.28908 26.5467 7.06411 26.5467 7.06411L24.252 4.76942C24.207 4.72442 24.117 4.67942 24.072 4.63442L22.5872 39.01ZM23.5321 4.63442C23.4871 4.63442 23.4421 4.63442 23.3971 4.67942C23.3521 4.67942 22.9471 4.81439 22.2272 5.03936C21.5523 3.01461 20.2925 1.21485 18.1327 1.21485H17.9527C17.3678 0.359956 16.6029 0 15.973 0C10.9336 0 8.50394 6.29922 7.78403 9.49381C5.84928 10.0788 4.45444 10.5287 4.27447 10.5737C3.19461 10.9336 3.14961 10.9336 3.01461 11.9685C2.87964 12.7784 0 34.8706 0 34.8706L22.0472 39.01L23.5321 4.63442ZM17.8178 6.16422V6.38919C16.6029 6.74917 15.2531 7.19911 13.9032 7.60406C14.6682 4.72442 16.063 3.32958 17.2778 2.78964C17.6378 3.55456 17.8178 4.67942 17.8178 6.16422ZM15.838 1.34983C16.063 1.34983 16.288 1.43982 16.4679 1.5748C14.8481 2.33971 13.1384 4.22947 12.3734 8.054C11.2936 8.36895 10.2587 8.72892 9.31383 8.99889C10.1687 6.11922 12.1935 1.34983 15.838 1.34983ZM16.6929 18.4027C16.6929 18.4027 15.3881 17.7278 13.8133 17.7278C11.4736 17.7278 11.3386 19.2126 11.3386 19.5726C11.3386 21.5973 16.6029 22.3622 16.6029 27.0866C16.6029 30.8211 14.2182 33.2058 11.0686 33.2058C7.24408 33.2058 5.30933 30.8211 5.30933 30.8211L6.34419 27.4466C6.34419 27.4466 8.36894 29.1564 10.0337 29.1564C11.1586 29.1564 11.6086 28.3014 11.6086 27.6266C11.6086 24.9719 7.28908 24.8819 7.28908 20.5174C7.28908 16.8729 9.89875 13.3183 15.2081 13.3183C17.2328 13.3183 18.2677 13.9033 18.2677 13.9033L16.6929 18.4027ZM18.7177 2.51969C19.8425 2.65467 20.5624 3.9145 21.0574 5.39933C20.5174 5.57931 19.8425 5.75928 19.1676 5.98425V5.57931C19.1676 4.31947 18.9876 3.32958 18.7177 2.51969Z" fill="black"/>
</svg>
