<svg width="201" height="89" viewBox="0 0 201 89" fill="none" xmlns="http://www.w3.org/2000/svg">
<g clip-path="url(#clip0_789_169)">
<path fill-rule="evenodd" clip-rule="evenodd" d="M44.2938 0C53.0543 3.27834e-09 61.618 2.60991 68.9021 7.49968C76.1862 12.3895 81.8635 19.3395 85.2159 27.4709C88.5684 35.6022 89.4454 44.5498 87.7363 53.182C86.0271 61.8141 81.8084 69.7433 75.6137 75.9667C69.419 82.1901 61.5265 86.4282 52.9343 88.1451C44.3421 89.862 35.436 88.9806 27.3424 85.6123C19.2488 82.244 12.3312 76.5401 7.46429 69.222C2.59737 61.9038 -0.000208576 53.3001 3.05341e-05 44.4988C0.00195386 32.6974 4.6692 21.3799 12.9755 13.0351C21.2818 4.69034 32.547 0.00161017 44.2938 0Z" fill="#0F6CB5"/>
<path fill-rule="evenodd" clip-rule="evenodd" d="M44.2937 8.78906C51.3235 8.78906 58.1954 10.8834 64.0405 14.8071C69.8856 18.7308 74.4413 24.3078 77.1314 30.8327C79.8216 37.3576 80.5255 44.5375 79.1541 51.4643C77.7826 58.3912 74.3975 64.7539 69.4266 69.7478C64.4558 74.7418 58.1226 78.1427 51.2279 79.5206C44.3332 80.8984 37.1866 80.1913 30.6919 77.4885C24.1972 74.7858 18.6461 70.2089 14.7406 64.3367C10.835 58.4644 8.7504 51.5604 8.7504 44.4979C8.7504 35.0273 12.4952 25.9446 19.1608 19.2479C25.8265 12.5512 34.8671 8.78906 44.2937 8.78906Z" fill="#AAC52A"/>
<path fill-rule="evenodd" clip-rule="evenodd" d="M30.525 40.6772L43.9153 27.9727L57.3057 40.6772V58.5256H30.525V40.6772Z" fill="#E31119"/>
<path d="M61.3049 36.4088L47.9146 23.7019L43.9154 19.9111L39.9149 23.7019L26.5245 36.4088L24.6772 38.1627V64.3978H63.1547V38.1627L61.3049 36.4088ZM57.3069 58.5301H30.5262V40.6757L43.9165 27.9711L57.3069 40.6757V58.5301Z" fill="white"/>
<path d="M136.949 11.2988L130.082 23.3815H145.92C147.005 23.3815 148.046 23.8147 148.814 24.5857C149.581 25.3568 150.012 26.4025 150.012 27.4929C150.012 28.5833 149.581 29.6291 148.814 30.4001C148.046 31.1711 147.005 31.6043 145.92 31.6043H115.343C115.392 31.167 115.427 30.7116 115.427 30.7116C115.655 28.4808 115.168 26.2353 114.038 24.3015C112.908 22.3677 111.193 20.8463 109.144 19.9584C107.094 19.0706 104.816 18.8625 102.641 19.3645C100.465 19.8665 98.5059 21.0523 97.0473 22.7497C95.5887 24.4471 94.7069 26.5676 94.53 28.803C94.3531 31.0384 94.8903 33.2722 96.0637 35.1798C97.237 37.0874 98.9853 38.5694 101.054 39.4104C103.124 40.2514 105.406 40.4075 107.569 39.8562C106.681 41.5311 104.457 45.7129 104.457 45.7129L107.783 47.4898C107.783 47.4898 113.835 36.125 114.22 35.3987H145.929C148.014 35.3987 150.012 34.5669 151.486 33.0863C152.96 31.6058 153.788 29.5977 153.788 27.5038C153.788 25.41 152.96 23.4019 151.486 21.9214C150.012 20.4408 148.014 19.609 145.929 19.609H136.342L141.213 11.3001L136.949 11.2988ZM106.079 36.3363C104.973 36.3373 103.892 36.0089 102.972 35.3927C102.053 34.7766 101.335 33.9003 100.911 32.8746C100.487 31.849 100.375 30.72 100.59 29.6305C100.804 28.541 101.335 27.5398 102.116 26.7535C102.897 25.9672 103.892 25.4312 104.976 25.2131C106.06 24.9951 107.184 25.1048 108.206 25.5284C109.228 25.9521 110.102 26.6706 110.717 27.5932C111.333 28.5157 111.662 29.6009 111.664 30.7116C111.662 32.2003 111.073 33.6277 110.026 34.6817C108.98 35.7356 107.561 36.3305 106.079 36.3363ZM197.136 19.6576V31.5703H188.407V19.6576H184.698V31.5703H175.912V19.6576H172.248V31.5703H163.16V11.2988H159.394V35.3938H200.908V19.6528L197.136 19.6576Z" fill="#0F6CB5"/>
<path d="M106.654 62.1824L105.535 61.5945C103.983 60.7844 102.128 59.4957 102.128 58.0406C102.104 57.6865 102.152 57.3312 102.271 56.9969C102.389 56.6625 102.575 56.3563 102.817 56.0973C103.078 55.8567 103.386 55.672 103.72 55.5545C104.055 55.4369 104.41 55.389 104.763 55.4135C105.335 55.3951 105.901 55.5243 106.409 55.7888C106.836 56.0354 107.181 56.404 107.4 56.8479L107.917 57.8475L111.377 55.7827L110.901 54.8839C110.329 53.7978 109.468 52.8932 108.413 52.2713C107.06 51.5612 105.528 51.2714 104.01 51.4388C102.493 51.6062 101.06 52.2232 99.8924 53.2114C99.24 53.8174 98.7245 54.5567 98.3807 55.3797C98.0368 56.2027 97.8725 57.0902 97.8988 57.9823C97.8684 59.4475 98.3582 60.8758 99.2807 62.0111C100.698 63.4691 102.368 64.6556 104.208 65.5128C105.4 66.0473 106.477 66.8068 107.383 67.75C107.81 68.3762 108.025 69.1242 107.995 69.8828C108.064 70.9155 107.728 71.9343 107.059 72.7213C106.713 73.0579 106.3 73.3174 105.847 73.483C105.394 73.6485 104.911 73.7163 104.431 73.6821C103.602 73.7063 102.79 73.4495 102.124 72.9533C101.457 72.4222 100.982 71.6856 100.773 70.8569L100.4 69.6168L96.6185 71.6367L96.9812 72.51C97.551 74.0525 98.5601 75.3924 99.8827 76.3627C101.197 77.2616 102.76 77.723 104.35 77.6817C105.387 77.7556 106.429 77.6049 107.403 77.2399C108.378 76.8749 109.263 76.304 109.999 75.5657C110.736 74.8275 111.306 73.9391 111.671 72.9606C112.036 71.9821 112.188 70.9363 112.116 69.8938C112.171 68.3604 111.759 66.8466 110.934 65.5553C109.773 64.1273 108.311 62.9754 106.654 62.1824ZM162.498 52.0685C161.078 51.6166 159.597 51.3924 158.107 51.4041C156.354 51.401 154.615 51.7307 152.984 52.3758C151.402 52.9885 149.956 53.909 148.729 55.0843C147.514 56.2819 146.564 57.7239 145.941 59.3159C145.296 60.9736 144.972 62.7395 144.985 64.5192C144.967 66.3038 145.285 68.0757 145.921 69.7419C146.537 71.3354 147.485 72.7781 148.702 73.9736C149.918 75.1758 151.366 76.115 152.957 76.7331C154.599 77.3758 156.347 77.7017 158.11 77.6938C159.473 77.6896 160.828 77.4888 162.134 77.0975C163.48 76.6978 164.769 76.1263 165.97 75.397L166.476 75.0837V69.827L164.767 71.1946C163.785 71.9749 162.686 72.5954 161.512 73.0335C160.39 73.4408 159.208 73.6507 158.015 73.6541C156.845 73.661 155.685 73.4433 154.596 73.0128C153.543 72.5832 152.588 71.9431 151.788 71.1314C150.985 70.3192 150.36 69.3463 149.955 68.2759C149.529 67.0768 149.32 65.8106 149.339 64.5374C149.288 63.3216 149.481 62.108 149.907 60.9686C150.332 59.8292 150.981 58.7872 151.815 57.9046C152.664 57.0588 153.679 56.3988 154.795 55.9661C155.91 55.5334 157.103 55.3374 158.298 55.3904C159.45 55.3852 160.592 55.5939 161.668 56.0062C162.836 56.494 163.916 57.1737 164.863 58.0175L166.574 59.4945L166.642 54.3932L166.237 54.0713C165.123 53.1868 163.859 52.509 162.508 52.0697L162.498 52.0685ZM199.993 59.4836C199.312 57.8795 198.326 56.4241 197.091 55.1985V55.19C195.859 53.9745 194.399 53.0171 192.796 52.3734C189.493 51.0847 185.831 51.0847 182.528 52.3734C180.922 53.0113 179.463 53.9713 178.239 55.1948C176.999 56.4194 176.013 57.8787 175.337 59.4884C174.675 61.09 174.334 62.8073 174.334 64.5417C174.334 66.2761 174.675 67.9934 175.337 69.595C176.749 72.8222 179.356 75.3707 182.605 76.7006C185.855 78.0305 189.492 78.0374 192.746 76.7197C194.365 76.0573 195.843 75.0887 197.098 73.8667C198.335 72.6528 199.318 71.2035 199.99 69.6035C200.666 68.0081 201.009 66.2907 201 64.5569C201.01 62.8157 200.67 61.0903 199.999 59.4848L199.993 59.4836ZM196.003 68.0755C195.546 69.1866 194.878 70.1977 194.036 71.0525C193.206 71.9051 192.214 72.5826 191.12 73.045C190.025 73.5075 188.849 73.7458 187.662 73.7458C186.474 73.7458 185.299 73.5075 184.204 73.045C183.11 72.5826 182.118 71.9051 181.288 71.0525C180.449 70.1953 179.78 69.1848 179.318 68.0755C178.421 65.8139 178.421 63.2925 179.318 61.0309C179.79 59.9234 180.461 58.9129 181.297 58.0503C182.136 57.2173 183.124 56.5513 184.21 56.0876C186.431 55.1956 188.909 55.1986 191.127 56.0961C192.22 56.5469 193.212 57.2135 194.043 58.0564C195.307 59.3529 196.166 60.9923 196.514 62.7729C196.862 64.5535 196.685 66.3975 196.003 68.078V68.0755Z" fill="#0F6CB5"/>
<path d="M129.934 51.4053H128.221L117.397 77.1023H121.824C121.824 77.1023 124.543 70.1305 124.866 69.2973H132.797L135.725 77.1023H140.298L129.934 51.4053ZM126.42 65.3621C126.935 64.1171 128.143 61.1596 128.913 59.2649C129.664 61.1657 130.816 64.1353 131.303 65.3621H126.42Z" fill="#0F6CB5"/>
</g>
<defs>
<clipPath id="clip0_789_169">
<rect width="201" height="89" fill="white"/>
</clipPath>
</defs>
</svg>
