<svg width="68" height="65" viewBox="0 0 68 65" fill="none" xmlns="http://www.w3.org/2000/svg">
<path fill-rule="evenodd" clip-rule="evenodd" d="M24 3.99984C24 3.11578 24.3512 2.26794 24.9763 1.64281C25.6014 1.01769 26.4493 0.666504 27.3333 0.666504H40.6667C41.5507 0.666504 42.3986 1.01769 43.0237 1.64281C43.6488 2.26794 44 3.11578 44 3.99984V10.6665H54C54.4919 10.6667 54.9776 10.7758 55.4224 10.9858C55.8671 11.1959 56.2599 11.5018 56.5725 11.8816C56.885 12.2614 57.1097 12.7057 57.2303 13.1826C57.3509 13.6595 57.3644 14.1571 57.27 14.6398L55.8133 22.0998L51.39 21.1165L34.7233 17.4132C34.2469 17.3073 33.7531 17.3073 33.2767 17.4132L16.61 21.1132L12.1867 22.0998L10.73 14.6398C10.6356 14.1571 10.6491 13.6595 10.7697 13.1826C10.8903 12.7057 11.115 12.2614 11.4275 11.8816C11.7401 11.5018 12.1329 11.1959 12.5776 10.9858C13.0224 10.7758 13.5081 10.6667 14 10.6665H24V3.99984ZM3.69333 30.6532L3.27666 30.7465C2.7825 30.8567 2.31991 31.0779 1.92402 31.3935C1.52812 31.7091 1.20933 32.1108 0.991814 32.568C0.774303 33.0251 0.663795 33.5259 0.668679 34.0321C0.673562 34.5384 0.793708 35.0369 1.02 35.4898L7.68666 48.8232C7.99925 49.4486 8.50057 49.9599 9.1197 50.2847C9.73884 50.6095 10.4444 50.7314 11.1367 50.6332L34 47.3665L56.8633 50.6332C57.5556 50.7314 58.2612 50.6095 58.8803 50.2847C59.4994 49.9599 60.0007 49.4486 60.3133 48.8232L66.98 35.4898C67.2063 35.0369 67.3264 34.5384 67.3313 34.0321C67.3362 33.5259 67.2257 33.0251 67.0082 32.568C66.7907 32.1108 66.4719 31.7091 66.076 31.3935C65.6801 31.0779 65.2175 30.8567 64.7233 30.7465L64.3067 30.6532C63.9619 30.6846 63.6145 30.6621 63.2767 30.5865L49.9433 27.6232L34 24.0798L18.0567 27.6232L4.72333 30.5898C4.38537 30.6643 4.03787 30.6857 3.69333 30.6532ZM24.8933 56.0165C26.0293 54.7183 27.4297 53.678 29.0006 52.9652C30.5715 52.2524 32.2766 51.8837 34.0017 51.8837C35.7267 51.8837 37.4318 52.2524 39.0027 52.9652C40.5736 53.678 41.974 54.7183 43.11 56.0165L43.2267 56.1498C44.0626 57.1062 45.2179 57.7258 46.477 57.8933C47.7361 58.0607 49.0132 57.7645 50.07 57.0598C51.6757 55.9899 53.5176 55.3264 55.4368 55.1266C57.356 54.9269 59.295 55.1968 61.0867 55.9132L65.2367 57.5698C66.044 57.9072 66.6863 58.5485 67.0249 59.3553C67.3636 60.1621 67.3714 61.0697 67.0468 61.8822C66.7221 62.6948 66.091 63.347 65.2896 63.6983C64.4882 64.0496 63.5809 64.0717 62.7633 63.7598L58.6133 62.0998C57.825 61.7848 56.9718 61.6664 56.1274 61.7546C55.2831 61.8429 54.4728 62.1353 53.7667 62.6065C51.3642 64.2079 48.4615 64.8812 45.5994 64.501C42.7373 64.1207 40.111 62.7129 38.21 60.5398L38.0933 60.4065C37.583 59.8227 36.9538 59.3548 36.2478 59.0343C35.5418 58.7137 34.7754 58.5478 34 58.5478C33.2246 58.5478 32.4582 58.7137 31.7522 59.0343C31.0462 59.3548 30.417 59.8227 29.9067 60.4065L29.79 60.5398C27.889 62.7129 25.2627 64.1207 22.4006 64.501C19.5385 64.8812 16.6358 64.2079 14.2333 62.6065C13.5272 62.1353 12.7169 61.8429 11.8726 61.7546C11.0282 61.6664 10.175 61.7848 9.38667 62.0998L5.23667 63.7598C4.82871 63.9303 4.39091 64.0179 3.94877 64.0176C3.50662 64.0173 3.06896 63.9289 2.66127 63.7578C2.25359 63.5867 1.88402 63.3362 1.57408 63.0208C1.26415 62.7055 1.02005 62.3317 0.855993 61.9211C0.691937 61.5105 0.611204 61.0714 0.618495 60.6293C0.625787 60.1872 0.720957 59.751 0.898463 59.346C1.07597 58.9411 1.33227 58.5755 1.65243 58.2706C1.97259 57.9656 2.35022 57.7274 2.76333 57.5698L6.91333 55.9132C8.705 55.1968 10.644 54.9269 12.5632 55.1266C14.4824 55.3264 16.3243 55.9899 17.93 57.0598C18.9868 57.7645 20.2639 58.0607 21.523 57.8933C22.7821 57.7258 23.9374 57.1062 24.7733 56.1498L24.8933 56.0165Z" fill="#286049"/>
</svg>
